<svg xmlns="http://www.w3.org/2000/svg" xmlns:xlink="http://www.w3.org/1999/xlink" viewBox="267.27 161.93 36.08 36.08"><g><path d="m267.26675,179.96906c0,9.95996,8.08008,18.04004,18.04004,18.04004,5.34961,0,10.14941-2.33008,13.4502-6.02051,0,0,.00977-.00977.01953-.00977,2.15039-2.41016,3.66016-5.41016,4.25977-8.72949.08008-.33984.12988-.69043.16992-1.0498.09082-.69043.13086-1.39062.14062-2.11035v-.12012c0-9.95996-8.07031-18.04004-18.04004-18.04004-6.62988,0-12.43066,3.58008-15.56055,8.91992-.5.83008-.91992,1.70996-1.25977,2.62988-.79004,2.00977-1.21973,4.2002-1.21973,6.49023Z" fill="#5583f7"></path><path d="m268.48648,173.47884c.96973-.29004,2.0498-.74023,3.23047-1.37012.40918-.20996.72949-.40918,1.01953-.58984.60059-.35938.91992-.5498,1.52051-.62988,1.48926-.18945,2.7793.62012,3.33008.95996,1.68945,1.07031,2.44922,2.57031,3.17969,4.03027.39941.7998,1.12988,2.49023,1.4502,4.78027.18945,1.3291.12988,2.04004.06934,2.67969-.05957.71973-.10938,1.39941.16992,2.51953.78027,3.03027,2.93066,4.98047,4.14062,5.87012,2.00977,1.48047,4.12012,2.2207,6.2793,2.2207.28027,0,.55078-.01074.82031-.03027,1.10059-.08984,3.16016-.48047,5.06055-1.93066,0,0,.00977-.00977.01953-.00977,2.15039-2.41016,3.66016-5.41016,4.25977-8.72949,0-.08008-.00977-.15039-.01953-.2207-.04004-.19922-.10059-.61914,0-.76953.01953,0,.05957-.02051.18945-.05957.09082-.69043.13086-1.39062.14062-2.11035-1.20996.28027-1.62012.59961-1.87988.91016-.66992.83984-.5,1.88965-.44043,2.2793.2998,1.9502-1.22949,5.20996-3.18945,6.89062-1.64062,1.38965-3.56055,1.68945-4.31055,1.75-2.9502.25-5.0498-1.29004-5.74023-1.7998-1-.73047-2.76953-2.33008-3.38965-4.75-.2002-.80078-.16992-1.2207-.11035-1.86035.06055-.70996.12988-1.58008-.08984-3.12988-.35938-2.57031-1.18945-4.48047-1.63965-5.40039-.78027-1.54004-1.74023-3.45996-3.91016-4.81934-.66992-.4209-2.44043-1.52051-4.63965-1.25-1.02051.12988-1.62012.48926-2.31055.89941-.25977.16016-.5498.33984-.91016.53027-.37012.18945-.71973.37012-1.04004.50977-.5.83008-.91992,1.70996-1.25977,2.62988Z" fill="#f2f2f2"></path></g></svg>